<?xml version="1.0" standalone="no"?>
<!DOCTYPE svg PUBLIC "-//W3C//DTD SVG 20010904//EN"
 "http://www.w3.org/TR/2001/REC-SVG-20010904/DTD/svg10.dtd">
<svg version="1.0" xmlns="http://www.w3.org/2000/svg"
 width="558.000000pt" height="558.000000pt" viewBox="0 0 558.000000 558.000000"
 preserveAspectRatio="xMidYMid meet">
<metadata>
Created by potrace 1.14, written by Peter Selinger 2001-2017
</metadata>
<g transform="translate(0.000000,558.000000) scale(0.100000,-0.100000)"
fill="#000000" stroke="none">
<path d="M1602 4128 c-39 -10 -73 -41 -96 -86 -14 -27 -16 -80 -16 -386 0
-368 2 -391 43 -434 55 -59 -25 -56 1252 -55 1275 0 1198 -4 1252 55 41 43 43
66 43 432 0 345 0 353 -22 396 -16 32 -35 51 -65 66 l-42 21 -1158 0 c-646 0
-1173 -4 -1191 -9z m1734 -374 c79 -52 69 -171 -18 -210 -51 -23 -107 -7 -143
40 -59 77 -5 186 93 186 23 0 54 -7 68 -16z m329 -6 c69 -54 65 -152 -8 -197
-40 -24 -65 -26 -110 -7 -35 14 -66 53 -73 91 -6 35 23 98 54 118 39 24 103
22 137 -5z"/>
<path d="M1632 2839 c-46 -6 -84 -30 -116 -73 -20 -26 -21 -42 -24 -398 l-3
-370 25 -43 c17 -28 40 -50 67 -63 42 -21 49 -21 1204 -22 l1162 0 44 23 c27
15 52 38 66 63 22 38 23 45 23 396 0 370 -2 392 -43 436 -54 59 20 55 -1222
56 -627 1 -1159 -2 -1183 -5z m1725 -403 c51 -55 44 -133 -17 -176 -77 -55
-190 3 -190 97 0 40 20 74 60 101 50 34 104 26 147 -22z m280 32 c76 -22 102
-134 45 -190 -39 -39 -91 -51 -134 -29 -89 44 -100 152 -20 206 37 25 59 28
109 13z"/>
</g>
</svg>
